<svg width="42" height="34" viewBox="0 0 42 34" fill="none" xmlns="http://www.w3.org/2000/svg">
<g clip-path="url(#clip0_2760_1780)">
<path fill-rule="evenodd" clip-rule="evenodd" d="M31.5551 10.7489C34.6319 11.2572 37.0789 12.5438 38.8857 14.6085C40.6926 16.6732 41.6012 19.2255 41.6012 22.2551C41.6012 25.8242 40.4241 28.6671 38.0701 30.7836C35.716 32.9002 32.6495 33.9585 28.8809 33.9585C25.0504 33.9585 21.9633 32.9002 19.6402 30.7836C17.3171 28.6671 16.1504 25.8242 16.1504 22.2551C16.1504 19.8273 17.854 19.1529 19.0414 17.2957L20.8895 11.0705L27.7452 0.0415039H38.3075L31.5551 10.7489ZM29.5934 16.4657C32.8457 16.4657 35.4888 19.1218 35.4888 22.39C35.4888 25.6582 32.8457 28.3143 29.5934 28.3143C26.341 28.3143 23.6979 25.6582 23.6979 22.39C23.6979 19.1218 26.341 16.4657 29.5934 16.4657Z" fill="white" stroke="white" stroke-width="0.7786" stroke-miterlimit="10"/>
<path d="M8.9019 26.1044C8.87093 26.1355 8.85028 26.177 8.8193 26.2185C8.78833 26.26 8.76768 26.3015 8.74703 26.343C8.55086 26.6335 8.33404 27.0278 8.12754 27.3183L7.81779 27.8059C7.55967 28.2002 7.30155 28.6463 7.04343 29.0406C6.9918 29.1236 6.94018 29.2066 6.88856 29.2896L6.57881 29.7772C6.51686 29.8602 6.47556 29.9432 6.42394 30.0262C6.26906 30.2545 6.11419 30.545 5.95932 30.7629C5.90769 30.8459 5.85607 30.9289 5.80445 31.0119C5.60827 31.3128 5.38113 31.6967 5.18496 31.9976C4.88553 32.4333 4.55514 33.0143 4.25572 33.4709L3.94597 33.9689H14.5186C14.6012 33.8236 14.6941 33.6887 14.7871 33.5331L15.0555 33.0973C15.1484 32.9521 15.231 32.8068 15.324 32.6616L15.5924 32.2258L16.2016 31.2402L16.2119 31.2298L16.6765 30.4931C16.7281 30.3998 16.7798 30.3271 16.8314 30.2338C16.8417 30.2234 16.8417 30.2234 16.852 30.2026L16.9863 29.9847C17.0379 29.9017 17.0895 29.8187 17.1411 29.7357L17.3683 29.3622C17.4302 29.2688 17.4406 29.2896 17.4302 29.2377C17.5025 29.2066 17.6677 28.8953 17.7193 28.8123C17.74 28.7812 17.7503 28.7812 17.7503 28.7397C17.8019 28.7086 17.9568 28.4388 17.9878 28.3766C18.0187 28.3247 18.0394 28.2936 18.0704 28.2417C18.122 28.1587 18.1736 28.0861 18.2252 27.9927L18.3801 27.7437L18.6899 27.2457L18.9996 26.758L19.2268 26.3741C19.2474 26.343 19.2887 26.2704 19.3094 26.2496L19.8049 25.4403C19.8359 25.3885 19.9598 25.2225 19.9598 25.1706C19.9908 25.1498 19.9908 25.1602 20.0114 25.1187C20.0321 25.0876 20.0321 25.0876 20.0527 25.0565L20.2902 24.6829C20.3418 24.5999 20.3935 24.5169 20.4451 24.4339L20.6 24.1849L21.3021 23.0748C21.333 23.0229 21.5085 22.722 21.5395 22.7116C21.5602 22.6701 21.5395 22.7116 21.5602 22.6701L21.8493 22.2136C21.8596 22.1825 21.8493 22.2032 21.8596 22.1825L22.1384 21.7156C22.1693 21.6845 22.2313 21.5807 22.2623 21.5288C22.3036 21.4666 22.3345 21.4147 22.3758 21.3421L23.047 20.2319C23.0986 20.1385 23.1502 20.0659 23.2018 19.9725C23.2328 19.9207 23.2534 19.8999 23.2741 19.848C23.3051 19.8065 23.3257 19.7547 23.3567 19.7235C23.4083 19.6405 23.4599 19.5679 23.5012 19.4849C23.5219 19.4434 23.5529 19.4019 23.5735 19.3604C23.5942 19.3293 23.6355 19.2774 23.6458 19.2359C23.6768 19.2151 23.8626 18.9039 23.9039 18.8416L24.2343 18.3021C24.255 18.271 24.255 18.2606 24.2756 18.2295C24.2963 18.1984 24.2963 18.188 24.3169 18.1569C24.3685 18.0842 24.4202 18.0012 24.4718 17.9078L24.7609 17.3891C24.7919 17.3165 24.8848 17.1608 24.8951 17.1193L24.9364 17.0571C24.9467 17.0259 24.9571 17.0156 24.9674 16.9844L25.3804 15.9884L25.5352 15.5526C25.6282 15.2414 25.7108 14.9405 25.783 14.6189C25.8037 14.5151 25.876 14.2142 25.876 14.1208C25.8966 14.069 25.9276 13.8615 25.9379 13.7888C25.9482 13.6747 25.9792 13.5606 25.9895 13.4568C26.0102 13.2182 26.0515 12.9899 26.0515 12.7305L26.0618 12.6475C26.0618 12.5957 26.0618 12.5853 26.0721 12.5438C26.0928 12.3985 26.0928 11.444 26.0928 11.2676L26.0205 10.2508C25.9999 10.116 25.9895 9.99146 25.9792 9.85658C25.9689 9.8047 25.9586 9.74245 25.9482 9.66982C25.9379 9.60757 25.9379 9.53494 25.9173 9.48307C25.9173 9.31706 25.7314 8.53891 25.6901 8.3729C25.6075 8.03052 25.4836 7.67776 25.37 7.34575C25.3081 7.16936 25.2461 7.03448 25.1739 6.86848C25.0087 6.45347 24.6989 5.8932 24.4924 5.54044C24.4511 5.46781 24.4098 5.41593 24.3685 5.3433C24.1414 5.01129 23.6871 4.35765 23.429 4.09826L22.4997 3.16448L21.9525 2.69759L20.569 1.76381C20.3109 1.60818 20.0734 1.49405 19.8049 1.35917C19.33 1.12054 18.3182 0.736652 17.8329 0.612148L17.2237 0.456518C16.852 0.36314 16.3151 0.259386 15.9228 0.207509L14.5186 0.0622546C14.4567 0.0518793 14.3947 0.0622546 14.3328 0.0622546C14.1469 0.0415039 13.9301 0.0415039 13.703 0.0415039H12.9905H12.9699C12.7634 0.0415039 12.5053 0.0622546 12.3091 0.0622546H12.2472H12.2368L12.2162 0.0726299C12.0613 0.0726299 11.9477 0.0933806 11.8135 0.0933806C11.576 0.103756 11.1114 0.166008 10.8636 0.197134C10.812 0.207509 10.7191 0.207509 10.6778 0.22826C10.6158 0.22826 10.5642 0.238635 10.5126 0.249011C10.4506 0.259386 10.399 0.269761 10.3267 0.280137C10.2235 0.300887 10.0583 0.321638 9.96536 0.352764C9.92406 0.352764 9.84146 0.373515 9.80016 0.38389C9.73822 0.394266 9.67627 0.415016 9.62464 0.425392C9.51107 0.456518 9.37685 0.477268 9.28392 0.508394C9.17035 0.529145 9.0671 0.560271 8.95353 0.601772C8.83995 0.632899 8.74703 0.664024 8.64378 0.69515L8.01397 0.902657L7.45642 1.14129H7.4461C7.38415 1.15167 7.10538 1.28655 7.01245 1.32805C6.87823 1.3903 6.73368 1.45255 6.59946 1.53555C6.50654 1.58743 6.42394 1.63931 6.33101 1.68081C6.15549 1.77419 5.8664 1.97132 5.73217 2.03357C5.64957 2.08545 5.56697 2.13732 5.48438 2.19958C5.44308 2.2307 5.4121 2.25145 5.3708 2.28258C5.31918 2.3137 5.2882 2.33445 5.2469 2.37596C5.12301 2.42783 4.48286 2.97773 4.32799 3.10223L3.61558 3.787C3.56395 3.83888 3.53298 3.85963 3.51233 3.91151C3.47103 3.93226 3.27486 4.17089 3.23356 4.21239L3.04771 4.44065C3.01674 4.48215 2.98576 4.51328 2.95479 4.55478C2.90316 4.61703 2.79991 4.73116 2.77926 4.80379H2.76894L2.74829 4.81416C2.74829 4.81416 2.72764 4.83491 2.72764 4.84529C2.66569 4.93867 2.46952 5.19805 2.43854 5.28105C2.39724 5.29143 2.1288 5.76869 2.09782 5.82057L1.59191 6.83735C1.52996 6.92036 1.17891 7.89564 1.16859 8.00977C1.14794 8.03052 1.14794 8.05127 1.13761 8.07202C1.08599 8.25878 1.02404 8.48703 0.982739 8.66341C0.962089 8.78792 0.931115 8.89167 0.910465 9.0058C0.889815 9.1303 0.869166 9.24443 0.838191 9.37931L0.786567 9.71132C0.765917 9.83583 0.755592 9.93958 0.745267 10.0641L0.672993 10.7904C0.672993 11.0394 0.652344 11.2884 0.652344 11.5478V11.5581V11.9731C0.652344 12.0354 0.662669 12.0873 0.662669 12.1703L0.672993 12.5853C0.672993 12.7409 0.724618 13.1041 0.724618 13.1871L0.786567 13.6747C0.838191 14.0275 0.879491 14.2765 0.951765 14.6085L1.05501 15.0443C1.09631 15.2414 1.15826 15.4281 1.22021 15.6149C1.28216 15.812 1.30281 15.895 1.38541 16.0922L1.41638 16.1648C1.42671 16.2374 1.65385 16.7666 1.69515 16.8599L1.93263 17.3372C1.9636 17.3995 1.99457 17.441 2.01522 17.5032C2.03587 17.524 2.05652 17.5551 2.06685 17.5862C2.15977 17.773 2.41789 18.1776 2.54179 18.3436C2.69666 18.5719 3.14063 19.184 3.35746 19.4019L3.5846 19.6509C3.65688 19.7443 3.80142 19.8688 3.89435 19.9622L4.1215 20.1904C4.16279 20.2215 4.17312 20.2319 4.20409 20.263L4.69969 20.6884C4.98878 20.9167 5.10236 21.0101 5.4121 21.2176C5.47405 21.2591 5.52568 21.3006 5.59795 21.3421C5.6599 21.3836 5.72185 21.4147 5.79412 21.4666L6.57881 21.9231C6.65108 21.9542 6.71303 21.9854 6.78531 22.0269C6.87823 22.0787 7.10538 22.1825 7.1983 22.224C7.26025 22.2551 7.31187 22.2759 7.37382 22.307L7.90039 22.5249C7.98299 22.556 8.57151 22.7739 8.65411 22.7843C8.70573 22.805 8.82963 22.8465 8.89158 22.8569C8.97418 22.8776 9.04645 22.8984 9.13937 22.9191C9.60399 23.0333 9.92406 23.1163 10.4093 23.2096L10.6778 23.2511L10.2132 24.0085C10.1925 24.0397 10.1512 24.0916 10.1409 24.1331L9.52139 25.1187L9.24262 25.5441C9.2323 25.5648 9.22197 25.5856 9.21165 25.6063L8.97418 25.9695C8.95353 26.0006 8.91223 26.0629 8.9019 26.1044ZM13.3726 5.83095C16.6249 5.83095 19.2681 8.48703 19.2681 11.7553C19.2681 15.0235 16.6249 17.6796 13.3726 17.6796C10.1202 17.6796 7.47707 15.0235 7.47707 11.7553C7.4874 8.47666 10.1202 5.83095 13.3726 5.83095Z" fill="url(#paint0_linear_2760_1780)"/>
</g>
<defs>
<linearGradient id="paint0_linear_2760_1780" x1="5.14705" y1="23.1936" x2="21.6827" y2="5.11997" gradientUnits="userSpaceOnUse">
<stop stop-color="#F4A102"/>
<stop offset="1" stop-color="#FFCD0F"/>
</linearGradient>
<clipPath id="clip0_2760_1780">
<rect width="41" height="34" fill="white" transform="translate(0.642578)"/>
</clipPath>
</defs>
</svg>
